<svg width="620" height="520" viewBox="0 0 620 520" fill="none" xmlns="http://www.w3.org/2000/svg">
  <defs>
    <linearGradient id="servicesHeroGradient" x1="120" y1="88" x2="488" y2="428" gradientUnits="userSpaceOnUse">
      <stop offset="0.05" stop-color="#016477"/>
      <stop offset="0.55" stop-color="#0C6DD1"/>
      <stop offset="1" stop-color="#00a3ab"/>
    </linearGradient>
    <radialGradient id="servicesHeroGlow" cx="0" cy="0" r="1" gradientUnits="userSpaceOnUse" gradientTransform="translate(310 260) rotate(90) scale(248 260)">
      <stop stop-color="#00a3ab" stop-opacity="0.85"/>
      <stop offset="1" stop-color="#00a3ab" stop-opacity="0"/>
    </radialGradient>
    <filter id="servicesHeroShadow" x="60" y="52" width="500" height="460" filterUnits="userSpaceOnUse" color-interpolation-filters="sRGB">
      <feGaussianBlur stdDeviation="42" result="blur"/>
    </filter>
  </defs>
  <rect x="104" y="96" width="392" height="360" rx="120" fill="url(#servicesHeroGradient)"/>
  <ellipse cx="314" cy="262" rx="236" ry="228" fill="url(#servicesHeroGlow)"/>
  <g filter="url(#servicesHeroShadow)" opacity="0.35">
    <rect x="132" y="126" width="352" height="320" rx="100" fill="#0A4C98"/>
  </g>
  <rect x="156" y="140" width="312" height="292" rx="44" stroke="#DAF1FF" stroke-opacity="0.6" stroke-width="3"/>
  <g opacity="0.9" stroke="#00a3ab" stroke-width="3.4" stroke-linecap="round">
    <path d="M240 152V204"/>
    <path d="M310 144V236"/>
    <path d="M380 152V204"/>
    <path d="M240 316V360"/>
    <path d="M310 332V384"/>
    <path d="M380 316V360"/>
  </g>
  <g opacity="0.75" stroke="#E2F5FF" stroke-width="3.2" stroke-linecap="round" stroke-linejoin="round">
    <path d="M204 212H276L306 182H392"/>
    <path d="M228 260H332L362 232H392"/>
    <path d="M248 316H340L368 288"/>
    <path d="M196 288H228L260 258H310"/>
  </g>
  <g>
    <circle cx="240" cy="142" r="16" fill="#00a3ab"/>
    <circle cx="310" cy="132" r="20" fill="#0B5EC1"/>
    <circle cx="380" cy="142" r="16" fill="#00a3ab"/>
    <circle cx="240" cy="368" r="16" fill="#00a3ab"/>
    <circle cx="310" cy="386" r="22" fill="#0B5EC1"/>
    <circle cx="380" cy="368" r="16" fill="#00a3ab"/>
  </g>
  <g opacity="0.6">
    <circle cx="220" cy="236" r="18" fill="#0A4C98"/>
    <circle cx="362" cy="256" r="24" fill="#0F5FB5"/>
    <circle cx="270" cy="312" r="20" fill="#00a3ab"/>
    <circle cx="344" cy="324" r="18" fill="#0B5EC1"/>
  </g>
  <rect x="212" y="220" width="212" height="136" rx="32" fill="#0B51A2" opacity="0.7"/>
  <path d="M356 248C356 268.986 338.986 286 318 286C297.014 286 280 268.986 280 248C280 227.014 297.014 210 318 210C338.986 210 356 227.014 356 248Z" fill="#00a3ab" opacity="0.85"/>
  <circle cx="258" cy="276" r="28" fill="#0A4C98" opacity="0.82"/>
</svg>
