<?xml version="1.0" encoding="UTF-8"?>
<svg xmlns="http://www.w3.org/2000/svg" xmlns:xlink="http://www.w3.org/1999/xlink" viewBox="0 0 1785.97 1597.87">
  <defs>
    <style>
      .cls-1 {
        fill: url(#linear-gradient);
      }

      .cls-1, .cls-2, .cls-3, .cls-4, .cls-5, .cls-6, .cls-7, .cls-8, .cls-9, .cls-10, .cls-11, .cls-12, .cls-13, .cls-14, .cls-15, .cls-16, .cls-17, .cls-18, .cls-19, .cls-20, .cls-21, .cls-22, .cls-23, .cls-24, .cls-25, .cls-26, .cls-27, .cls-28, .cls-29, .cls-30, .cls-31, .cls-32, .cls-33, .cls-34, .cls-35 {
        stroke-width: 0px;
      }

      .cls-2 {
        fill: #bbe8fa;
      }

      .cls-3 {
        fill: #12a7e8;
      }

      .cls-4 {
        fill: #3a71e8;
      }

      .cls-5, .cls-29 {
        fill: #fff;
      }

      .cls-5, .cls-36 {
        opacity: .89;
      }

      .cls-6 {
        fill: #1a80d6;
      }

      .cls-7 {
        fill: #e3ebff;
      }

      .cls-8 {
        fill: #1496cc;
      }

      .cls-9 {
        fill: #48c3f7;
      }

      .cls-10 {
        fill: #53aefa;
      }

      .cls-11 {
        fill: #f7937e;
      }

      .cls-12 {
        fill: #66d9ff;
      }

      .cls-13 {
        fill: #05b4ff;
      }

      .cls-14 {
        fill: #1b5e96;
      }

      .cls-15 {
        fill: #8cdafa;
      }

      .cls-16 {
        fill: url(#linear-gradient-2);
      }

      .cls-17 {
        fill: #e6f8ff;
      }

      .cls-18 {
        fill: #f7a594;
      }

      .cls-19 {
        fill: #19baff;
      }

      .cls-20 {
        fill: #f79f8d;
      }

      .cls-21 {
        fill: #73382a;
      }

      .cls-22 {
        fill: #d9f3ff;
      }

      .cls-23 {
        fill: #2eaee6;
      }

      .cls-24 {
        fill: #5388fa;
      }

      .cls-25 {
        fill: #bd4a31;
      }

      .cls-26 {
        fill: #231f20;
      }

      .cls-27 {
        fill: #d17360;
      }

      .cls-28 {
        fill: #2278c1;
      }

      .cls-30 {
        fill: #33c1ff;
      }

      .cls-31 {
        fill: #59cdff;
      }

      .cls-32 {
        fill: #30b6f0;
      }

      .cls-33 {
        fill: #66d1ff;
      }

      .cls-34 {
        fill: #d4e6ff;
      }

      .cls-35 {
        fill: #80d9ff;
      }
    </style>
    <linearGradient id="linear-gradient" x1="613.13" y1="1302.24" x2="613.13" y2="584.66" gradientUnits="userSpaceOnUse">
      <stop offset="0" stop-color="#63ceff"/>
      <stop offset="0" stop-color="#66cfff"/>
      <stop offset=".08" stop-color="#88daff"/>
      <stop offset=".17" stop-color="#a5e3ff"/>
      <stop offset=".26" stop-color="#bdeaff"/>
      <stop offset=".36" stop-color="#cff0ff"/>
      <stop offset=".49" stop-color="#dcf4ff"/>
      <stop offset=".65" stop-color="#e3f7ff"/>
      <stop offset="1" stop-color="#e6f8ff"/>
    </linearGradient>
    <linearGradient id="linear-gradient-2" x1="597.78" y1="1194.19" x2="597.78" y2="1361.19" gradientUnits="userSpaceOnUse">
      <stop offset="0" stop-color="#63ceff"/>
      <stop offset=".12" stop-color="#7fd7ff"/>
      <stop offset=".3" stop-color="#a4e2ff"/>
      <stop offset=".48" stop-color="#c1ecff"/>
      <stop offset=".65" stop-color="#d5f2ff"/>
      <stop offset=".83" stop-color="#e1f6ff"/>
      <stop offset="1" stop-color="#e6f8ff"/>
    </linearGradient>
  </defs>
  <g id="wire">
    <g class="cls-36">
      <circle class="cls-12" cx="1185.07" cy="1246.58" r="7.57" transform="translate(-300.43 2113.54) rotate(-76.72)"/>
      <circle class="cls-12" cx="1252.65" cy="1385.28" r="7.57" transform="translate(-612.65 1291.5) rotate(-45)"/>
      <circle class="cls-12" cx="1068.55" cy="1345.44" r="7.57" transform="translate(-486.39 2076.29) rotate(-76.72)"/>
      <circle class="cls-12" cx="996.43" cy="1206.23" r="7.57" transform="translate(-561.08 1057.88) rotate(-45)"/>
      <circle class="cls-12" cx="1093.77" cy="1026.65" r="7.57" transform="translate(-156.71 1855.28) rotate(-76.72)"/>
      <circle class="cls-12" cx="1274.85" cy="1069.27" r="7.57" transform="translate(-58.71 2064.34) rotate(-76.72)"/>
      <circle class="cls-12" cx="1165.14" cy="1164.09" r="7.57" transform="translate(-235.5 2030.61) rotate(-76.72)"/>
      <circle class="cls-12" cx="1343.19" cy="1204.94" r="7.57" transform="translate(-138.12 2235.37) rotate(-76.72)"/>
      <path class="cls-12" d="M1255.67,1386.58l-189.34-39.96,98.15-184.44,180.63,40.47-89.44,183.92ZM1070.85,1344.51l183.15,38.65,86.76-178.4-174.71-39.14-95.2,178.9Z"/>
      <path class="cls-12" d="M1068.58,1348.78l-73.68-141.47,98.39-184.88,73.68,141.47-98.39,184.88ZM998.29,1207.33l70.32,135.01,94.97-178.45-70.32-135.01-94.97,178.45Z"/>
      <polygon class="cls-12" points="1341.6 1204.38 1273.32 1068.82 1092.93 1027.12 1093.61 1024.2 1275.37 1066.22 1344.28 1203.03 1341.6 1204.38"/>
      <polygon class="cls-12" points="1253.49 1385.53 1186.06 1248.9 996.28 1208.79 996.9 1205.86 1188.11 1246.27 1256.18 1384.2 1253.49 1385.53"/>
      <rect class="cls-12" x="1131.43" y="1156.05" width="198.06" height="3" transform="translate(-349.14 1756.57) rotate(-64.02)"/>
    </g>
    <g class="cls-36">
      <g>
        <path class="cls-12" d="M176.53,1293.07c-30.14,0-59.3-16.27-74.32-44.72-10.45-19.81-12.57-42.51-5.95-63.92,6.62-21.4,21.17-38.95,40.99-49.4,40.9-21.58,91.73-5.86,113.32,35.04,21.58,40.9,5.86,91.73-35.04,113.32-12.45,6.57-25.82,9.68-39,9.68ZM176.25,1128.35c-12.71,0-25.6,3-37.6,9.33-19.11,10.08-33.14,27-39.52,47.63-6.38,20.64-4.34,42.52,5.74,61.63,14.48,27.43,42.6,43.12,71.66,43.12,12.71,0,25.6-3,37.6-9.33,39.44-20.81,54.59-69.82,33.79-109.26-14.48-27.43-42.6-43.12-71.66-43.12Z"/>
        <path class="cls-12" d="M203.19,1286.32c-21.37,0-48.78-22.18-66.66-56.08-10.38-19.67-16.09-40.33-16.07-58.17.02-18.18,5.98-31.34,16.79-37.04,21.98-11.6,57.42,12.24,79,53.14,21.58,40.9,21.26,83.61-.73,95.21-3.76,1.99-7.92,2.93-12.34,2.93ZM149.83,1135.03c-4.01,0-7.77.86-11.18,2.65-9.78,5.16-15.17,17.37-15.19,34.39-.02,17.36,5.56,37.52,15.72,56.77,17.35,32.89,43.62,54.54,63.77,54.54,4.01,0,7.77-.86,11.18-2.65,20.52-10.83,20.28-51.72-.53-91.16-17.35-32.89-43.62-54.55-63.77-54.55Z"/>
        <rect class="cls-12" x="94.73" y="1207.85" width="164.14" height="3" transform="translate(-544.2 222.46) rotate(-27.83)"/>
      </g>
      <path class="cls-12" d="M140.06,1221.46c4.57,1.41,7.12,6.26,5.71,10.82-1.41,4.57-6.26,7.12-10.82,5.71s-7.12-6.26-5.71-10.82,6.26-7.12,10.82-5.71Z"/>
      <path class="cls-12" d="M217.48,1180.61c4.57,1.41,7.12,6.26,5.71,10.82-1.41,4.57-6.26,7.12-10.82,5.71-4.57-1.41-7.12-6.26-5.71-10.82s6.26-7.12,10.82-5.71Z"/>
      <path class="cls-12" d="M105.57,1239.66c4.57,1.41,7.12,6.26,5.71,10.82s-6.26,7.12-10.82,5.71-7.12-6.26-5.71-10.82,6.26-7.12,10.82-5.71Z"/>
      <path class="cls-12" d="M251.97,1162.41c4.57,1.41,7.12,6.26,5.71,10.82s-6.26,7.12-10.82,5.71c-4.57-1.41-7.12-6.26-5.71-10.82,1.41-4.57,6.26-7.12,10.82-5.71Z"/>
      <path class="cls-12" d="M139.81,1128.91c4.57,1.41,7.12,6.26,5.71,10.82-1.41,4.57-6.26,7.12-10.82,5.71s-7.12-6.26-5.71-10.82,6.26-7.12,10.82-5.71Z"/>
      <path class="cls-12" d="M215.39,1272.15c4.57,1.41,7.12,6.26,5.71,10.82-1.41,4.57-6.26,7.12-10.82,5.71-4.57-1.41-7.12-6.26-5.71-10.82,1.41-4.57,6.26-7.12,10.82-5.71Z"/>
    </g>
    <g class="cls-36">
      <path class="cls-12" d="M948.83,175.33c-4.41.46-7.99-.27-10.1-2.74-.16-.19-.31-.39-.45-.6-9.88-14.42,34.12-64.32,80.55-103.94,46.43-39.63,102.62-75.24,115.32-63.21.17.16.35.34.51.53,6.44,7.54-5.35,25.97-16.37,40.09-15.16,19.42-37.79,42.31-63.72,64.45-25.94,22.14-52.1,40.89-73.66,52.81-10.54,5.82-23.04,11.68-32.07,12.61ZM1124.96,5.57c-16.94,1.75-57.31,24.75-104.19,64.75-56.06,47.85-86.63,90.33-80.01,99.98.08.13.17.23.25.34,3.88,4.55,18.25.61,38.43-10.55,21.39-11.82,47.37-30.46,73.16-52.47,25.79-22.01,48.27-44.74,63.31-64.01,14.19-18.18,20.34-31.75,16.46-36.3h0c-.09-.1-.18-.2-.28-.29-1.39-1.32-3.81-1.79-7.13-1.45Z"/>
      <path class="cls-12" d="M1132.37,7.31h0c-.09-.1-.18-.2-.28-.29l-1.22-1.13,2.39-2.11,1.39,1.57s0,0,0,0l-1.13.97.61.69-.03.02-.61-.69-1.12.96Z"/>
      <path class="cls-12" d="M1132.78,390.84c-4.41.45-7.99-.27-10.1-2.74-.48-.56-.87-1.2-1.16-1.9-5.84-13.99,29.09-58.12,81.25-102.64,52.16-44.52,101.23-72.08,114.14-64.11.65.39,1.22.88,1.69,1.44h0c11.18,13.1-31.94,63.45-80.09,104.55-25.94,22.14-52.1,40.89-73.66,52.81-10.53,5.82-23.04,11.68-32.07,12.61ZM1308.93,221.11c-16.76,1.73-56.69,24.17-104.21,64.73-55.49,47.36-84.95,88.37-80.42,99.21.17.42.4.79.67,1.11,3.89,4.55,18.25.61,38.44-10.55,21.39-11.82,47.38-30.46,73.16-52.46,57.23-48.85,87.45-91.31,79.76-100.32h0c-.27-.32-.6-.59-.98-.83-1.44-.89-3.6-1.18-6.41-.89Z"/>
      <path class="cls-12" d="M1122.21,388.19l-.97-1.14-184.16-215.77,2.77-2.36.94,1.4c.08.11.16.22.24.32,3.88,4.55,18.25.61,38.43-10.55,21.39-11.82,47.37-30.46,73.16-52.47,25.79-22.01,48.27-44.74,63.31-64.01,14.18-18.17,20.33-31.74,16.46-36.29h0s2.28-1.96,2.28-1.96l183.79,215.33-2.19,1.87-.93-.57c-9.99-6.17-55.12,16.48-110.61,63.84-55.49,47.36-84.95,88.37-80.42,99.21l.42,1.01-2.51,2.14ZM944.48,175.35l176.42,206.7c.78-17.27,34.1-57.72,81.87-98.49,47.22-40.31,91.92-66.72,109.53-65.44L1136.44,12.08c-.7,9.04-9.66,22.49-18.16,33.38-15.16,19.42-37.79,42.31-63.72,64.45-25.94,22.14-52.1,40.89-73.66,52.81-12.36,6.83-27.44,13.72-36.42,12.63Z"/>
      <path class="cls-12" d="M1138.53,2.06c2.1,2.47,1.81,6.17-.65,8.27-2.47,2.1-6.17,1.81-8.28-.65s-1.81-6.17.65-8.28,6.17-1.81,8.28.65Z"/>
      <path class="cls-12" d="M943.91,168.17c2.1,2.47,1.81,6.17-.65,8.28-2.47,2.1-6.17,1.81-8.28-.65-2.1-2.47-1.81-6.17.65-8.28s6.17-1.81,8.28.65Z"/>
      <path class="cls-12" d="M1017.45,136.76c2.1,2.47,1.81,6.17-.65,8.28s-6.17,1.81-8.28-.65c-2.1-2.47-1.81-6.17.65-8.28s6.17-1.81,8.28.65Z"/>
      <path class="cls-12" d="M1051.14,42.63c2.1,2.47,1.81,6.17-.65,8.28-2.47,2.1-6.17,1.81-8.28-.65s-1.81-6.17.65-8.28,6.17-1.81,8.28.65Z"/>
      <path class="cls-12" d="M1126.35,381.92c2.1,2.47,1.81,6.17-.65,8.28-2.47,2.1-6.17,1.81-8.28-.65-2.1-2.47-1.81-6.17.65-8.28s6.17-1.81,8.28.65Z"/>
      <path class="cls-12" d="M1320.31,216.37c2.1,2.47,1.81,6.17-.65,8.28s-6.17,1.81-8.28-.65c-2.1-2.47-1.81-6.17.65-8.28,2.47-2.1,6.17-1.81,8.28.65Z"/>
      <rect class="cls-12" x="1104.29" y="107.1" width="3" height="282.18" transform="translate(103.58 777.29) rotate(-40.48)"/>
      <rect class="cls-12" x="1137.1" y="13.72" width="3" height="282.18" transform="translate(172.06 776.24) rotate(-40.48)"/>
      <path class="cls-12" d="M1235.07,258.34c2.1,2.47,1.81,6.17-.65,8.28s-6.17,1.81-8.28-.65c-2.1-2.47-1.81-6.17.65-8.28,2.47-2.1,6.17-1.81,8.28.65Z"/>
      <path class="cls-12" d="M1201.88,351.29c2.1,2.47,1.81,6.17-.65,8.28s-6.17,1.81-8.28-.65c-2.1-2.47-1.81-6.17.65-8.28s6.17-1.81,8.28.65Z"/>
    </g>
  </g>
  <g id="hologram">
    <g class="cls-36">
      <polygon class="cls-1" points="147.43 588.48 591.19 1273.53 1078.83 588.48 147.43 588.48"/>
      <g>
        <rect class="cls-28" x="401.72" y="1583.32" width="394.47" height="14.55"/>
        <g>
          <rect class="cls-6" x="425.21" y="1282.07" width="345.19" height="314.74"/>
          <path class="cls-17" d="M745.86,1583.74h-150.06v-219.78c0-11.53,9.38-20.9,20.9-20.9h108.25c11.53,0,20.9,9.38,20.9,20.9v219.78ZM598.8,1580.74h144.06v-216.78c0-9.87-8.03-17.9-17.9-17.9h-108.25c-9.87,0-17.9,8.03-17.9,17.9v216.78Z"/>
          <g>
            <rect class="cls-14" x="458.4" y="1344.87" width="87.32" height="9.96"/>
            <rect class="cls-14" x="458.4" y="1363.26" width="87.32" height="9.96"/>
            <rect class="cls-14" x="458.4" y="1381.64" width="87.32" height="9.96"/>
            <rect class="cls-14" x="458.4" y="1400.02" width="87.32" height="9.96"/>
            <rect class="cls-14" x="458.4" y="1418.41" width="87.32" height="9.96"/>
            <rect class="cls-14" x="458.4" y="1436.79" width="87.32" height="9.96"/>
            <rect class="cls-14" x="458.4" y="1455.17" width="87.32" height="9.96"/>
          </g>
          <path class="cls-14" d="M710.79,1504.96h0c-4.02,0-7.28-3.26-7.28-7.28v-76.6c0-4.02,3.26-7.28,7.28-7.28h0c4.02,0,7.28,3.26,7.28,7.28v76.6c0,4.02-3.26,7.28-7.28,7.28Z"/>
        </g>
        <rect class="cls-17" x="400.96" y="1581.59" width="394.47" height="3"/>
        <path class="cls-16" d="M770.11,1279.47h-344.6c-14.27-9.69-19.75-23.86-19.02-41.19h382.64c-.49,17.04-5.99,31.25-19.02,41.19Z"/>
      </g>
      <g>
        <g>
          <rect class="cls-35" x="523.53" y="408.7" width="193.46" height="41.3" transform="translate(.72 -1.04) rotate(.1)"/>
          <rect class="cls-30" x="511.3" y="408.68" width="193.46" height="41.3" transform="translate(.72 -1.01) rotate(.1)"/>
        </g>
        <path class="cls-30" d="M622.86,567.97l-.44,270.22c-.04,20.74-16.88,37.53-37.63,37.49l-109.87-.18c-20.75-.03-37.54-16.88-37.51-37.62l.15-93.95h0s6.79.01,6.79.01l.12-73.62h-6.79s0-.19,0-.19l.17-102.48c.04-20.74,16.88-37.53,37.63-37.49l109.87.18c20.74.03,37.53,16.88,37.49,37.63Z"/>
        <rect class="cls-30" x="500.64" y="530.41" width="248.74" height="345.86" transform="translate(1.18 -1.04) rotate(.1)"/>
        <path class="cls-22" d="M761.4,530.63l-44.41-.07-.02,9.08-11.98-.02.02-9.08-53.49-.09c-20.74-.03-37.59,16.75-37.62,37.5l-.45,270.22c-.03,20.74,16.75,37.59,37.5,37.62l109.88.18c20.74.03,37.59-16.75,37.62-37.5l.45-270.22c.03-20.74-16.75-37.59-37.5-37.62Z"/>
        <path class="cls-29" d="M760.89,876.97h-.07l-109.88-.18c-21.26-.04-38.53-17.36-38.5-38.62l.45-270.22c.02-10.3,4.04-19.98,11.34-27.25,7.28-7.25,16.94-11.25,27.22-11.25h.07l54.49.09-.02,9.08,9.98.02.02-9.08,45.41.08c10.3.02,19.98,4.04,27.25,11.34,7.27,7.3,11.27,16.99,11.25,27.29l-.45,270.22c-.02,10.3-4.04,19.98-11.34,27.25-7.28,7.25-16.94,11.25-27.22,11.25ZM651.45,531.45c-9.74,0-18.91,3.79-25.81,10.67-6.92,6.89-10.74,16.07-10.75,25.83l-.45,270.22c-.03,20.16,16.34,36.59,36.5,36.62l109.88.18h.06c9.74,0,18.9-3.79,25.81-10.67,6.92-6.89,10.74-16.07,10.75-25.83l.45-270.22c.02-9.77-3.77-18.95-10.67-25.87-6.89-6.92-16.07-10.74-25.83-10.75l-43.41-.07-.02,9.08-13.98-.02.02-9.08-52.49-.09h-.06Z"/>
        <path class="cls-32" d="M784.95,568.23l-.45,270.22c-.02,13.02-10.64,23.6-23.65,23.58l-109.88-.18c-13.02-.02-23.6-10.63-23.58-23.65l.45-270.22c.02-13.02,10.63-23.6,23.65-23.58l109.88.18c13.02.02,23.6,10.64,23.58,23.65Z"/>
        <path class="cls-31" d="M773.24,568.21l-.45,270.22c-.02,13.02-10.63,23.6-23.65,23.58l-98.17-.16c-13.02-.02-23.6-10.63-23.58-23.65l.45-270.22c.02-13.02,10.63-23.6,23.65-23.58l98.17.16c13.02.02,23.6,10.64,23.58,23.65Z"/>
        <g>
          <ellipse class="cls-19" cx="705.63" cy="657.37" rx="89.45" ry="54.4" transform="translate(47.09 1361.91) rotate(-89.9)"/>
          <rect class="cls-19" x="675.07" y="597.31" width="178.96" height="120.3" transform="translate(105.82 1420.91) rotate(-89.9)"/>
          <ellipse class="cls-22" cx="824.33" cy="657.57" rx="89.45" ry="54.4" transform="translate(165.39 1480.81) rotate(-89.9)"/>
          <path class="cls-29" d="M753.54,657c-.08,49.01,22.68,89.96,49.7,90h-.85s-7.67-.02-7.67-.02c-10.81-2.88-20.76-11.83-28.55-25.89-9.5-17.15-14.72-39.91-14.68-64.09.04-24.18,5.33-46.93,14.89-64.04,7.18-12.83,16.13-21.39,25.88-24.94l10.43.02v.16c-27.02-.05-49.07,39.79-49.15,88.8Z"/>
          <path class="cls-29" d="M673.58,656.87c-.08,49.01,27.26,89.97,59.7,90.02h-1.02s-9.21-.02-9.21-.02c-12.98-2.89-24.92-11.84-34.29-25.9-11.41-17.15-17.68-39.91-17.64-64.1.04-24.18,6.38-46.93,17.85-64.03,8.61-12.83,19.35-21.38,31.06-24.93l12.52.02v.16c-32.44-.05-58.89,39.77-58.98,88.78Z"/>
          <path class="cls-23" d="M873.47,657.65c-.07,44.63-22.13,80.77-49.27,80.72-1.13,0-2.26-.06-3.37-.2-25.56-2.88-45.71-37.92-45.64-80.68.07-42.76,20.33-77.73,45.91-80.53,1.11-.13,2.24-.19,3.37-.19,27.14.05,49.08,36.26,49,80.89Z"/>
          <path class="cls-31" d="M866.73,657.64c-.07,42.76-20.33,77.73-45.9,80.53-25.56-2.88-45.71-37.92-45.64-80.68.07-42.76,20.33-77.73,45.91-80.53,25.56,2.89,45.7,37.92,45.63,80.68Z"/>
          <path class="cls-8" d="M836.83,657.59c-.02,11.35-5.63,20.55-12.53,20.53-1.63,0-3.2-.52-4.62-1.47-4.61-3.03-7.85-10.45-7.84-19.1.01-8.67,3.29-16.07,7.9-19.08,1.43-.95,3-1.46,4.63-1.46,6.9.01,12.48,9.22,12.47,20.58Z"/>
          <path class="cls-2" d="M827.58,657.58c-.01,8.66-3.29,16.06-7.9,19.08-4.61-3.03-7.85-10.45-7.84-19.1.01-8.67,3.29-16.07,7.9-19.08,4.61,3.02,7.85,10.44,7.84,19.1Z"/>
        </g>
        <g>
          <ellipse class="cls-19" cx="696.59" cy="808.88" rx="36.45" ry="22.17" transform="translate(-113.46 1504.12) rotate(-89.9)"/>
          <rect class="cls-19" x="684.13" y="784.41" width="72.93" height="49.02" transform="translate(-89.52 1528.16) rotate(-89.9)"/>
          <ellipse class="cls-29" cx="744.96" cy="808.97" rx="36.45" ry="22.17" transform="translate(-65.25 1552.58) rotate(-89.9)"/>
          <path class="cls-29" d="M716.11,808.73c-.03,19.97,9.24,36.66,20.25,36.68h-.35s-3.13,0-3.13,0c-4.41-1.18-8.46-4.82-11.64-10.55-3.87-6.99-6-16.26-5.98-26.12.02-9.85,2.17-19.12,6.07-26.1,2.92-5.23,6.57-8.72,10.55-10.16h4.25s0,.07,0,.07c-11.01-.02-20,16.21-20.03,36.19Z"/>
          <path class="cls-29" d="M683.53,808.68c-.03,19.97,11.11,36.66,24.33,36.68h-.41s-3.75,0-3.75,0c-5.29-1.18-10.16-4.82-13.97-10.56-4.65-6.99-7.2-16.27-7.19-26.12.02-9.85,2.6-19.12,7.28-26.09,3.51-5.23,7.89-8.71,12.66-10.16h5.1s0,.07,0,.07c-13.22-.02-24,16.21-24.03,36.18Z"/>
          <path class="cls-23" d="M764.99,809c-.03,18.19-9.02,32.91-20.08,32.9-.46,0-.92-.03-1.37-.08-10.42-1.17-18.63-15.45-18.6-32.88.03-17.43,8.29-31.68,18.71-32.82.45-.05.91-.08,1.37-.08,11.06.02,20,14.78,19.97,32.96Z"/>
          <path class="cls-31" d="M762.24,808.99c-.03,17.43-8.29,31.68-18.7,32.82-10.42-1.17-18.63-15.45-18.6-32.88.03-17.43,8.29-31.68,18.71-32.82,10.41,1.18,18.62,15.45,18.59,32.88Z"/>
          <path class="cls-8" d="M750.05,808.97c0,4.62-2.29,8.37-5.11,8.37-.67,0-1.3-.21-1.88-.6-1.88-1.23-3.2-4.26-3.2-7.79,0-3.53,1.34-6.55,3.22-7.77.58-.39,1.22-.59,1.89-.59,2.81,0,5.09,3.76,5.08,8.38Z"/>
          <path class="cls-15" d="M746.28,808.97c0,3.53-1.34,6.55-3.22,7.77-1.88-1.23-3.2-4.26-3.2-7.79,0-3.53,1.34-6.55,3.22-7.77,1.88,1.23,3.2,4.25,3.19,7.79Z"/>
        </g>
        <g>
          <polygon class="cls-13" points="567.19 670.52 567.06 744.32 437.57 744.1 437.57 743.92 444.36 743.94 444.48 670.32 567.19 670.52"/>
          <path class="cls-29" d="M568.06,745.32l-131.49-.22v-2.18s6.79.01,6.79.01l.12-73.62,124.71.21-.12,75.8ZM445.36,743.12l120.71.2.12-71.8-120.71-.2-.12,71.8Z"/>
        </g>
        <polygon class="cls-3" points="444.48 670.14 444.48 670.32 437.69 670.3 437.69 670.13 444.48 670.14"/>
        <path class="cls-22" d="M558.87,651.62h-.03l-63.99-.11c-5.09,0-9.88-2-13.47-5.61-3.59-3.61-5.57-8.4-5.56-13.49l.07-39.9c0-5.09,2-9.88,5.61-13.47,3.61-3.59,8.37-5.61,13.49-5.56l63.99.11c10.51.02,19.05,8.58,19.03,19.09l-.07,39.9c0,5.09-2,9.88-5.61,13.47-3.6,3.59-8.38,5.56-13.46,5.56ZM494.94,578.01c-3.88,0-7.52,1.51-10.27,4.24-2.75,2.74-4.27,6.39-4.28,10.28l-.07,39.9c0,3.89,1.5,7.54,4.24,10.29,2.74,2.75,6.39,4.27,10.28,4.28l63.99.11h.02c3.88,0,7.52-1.51,10.27-4.24,2.75-2.74,4.27-6.39,4.28-10.28l.07-39.9c.01-8.02-6.5-14.56-14.52-14.57l-63.99-.11h-.02Z"/>
        <g>
          <path class="cls-30" d="M410.55,741.97l.12-73.8-135.55-.23c-4.8,0-8.7,3.88-8.7,8.68l-.09,56.42c0,4.8,3.88,8.7,8.68,8.7l135.55.23Z"/>
          <path class="cls-33" d="M396.66,677.18l-.09,55.73c0,4.99,4.03,9.04,9.02,9.05l9.45.02.12-73.8-9.45-.02c-4.99,0-9.04,4.03-9.05,9.02Z"/>
        </g>
        <path class="cls-9" d="M901.21,829.55l.12-73.8,97.58.16c4.8,0,8.68,3.91,8.68,8.7l-.09,56.42c0,4.8-3.91,8.68-8.7,8.68l-97.58-.16Z"/>
        <g>
          <path class="cls-30" d="M531.77,919.71h129.01v168.7h-106.17c-12.6,0-22.83-10.23-22.83-22.83v-145.86h0Z" transform="translate(1.68 -.99) rotate(.1)"/>
          <path class="cls-35" d="M644.19,919.85h61.8v147.7c0,11.59-9.41,20.99-20.99,20.99h-19.81c-11.59,0-20.99-9.41-20.99-20.99v-147.7h0Z" transform="translate(1.68 -1.13) rotate(.1)"/>
        </g>
        <g>
          <g>
            <rect class="cls-9" x="869.47" y="903.08" width="41.2" height="15.26" transform="translate(1.52 -1.48) rotate(.1)"/>
            <path class="cls-9" d="M867.19,910.68c0,4.22,1.05,7.64,2.35,7.64,1.31,0,2.37-3.42,2.38-7.64,0-4.22-1.05-7.64-2.35-7.64s-2.37,3.42-2.38,7.64Z"/>
          </g>
          <path class="cls-9" d="M908.37,910.76c0,4.32,1.05,7.82,2.35,7.82,1.31,0,2.37-3.49,2.38-7.81,0-4.32-1.05-7.82-2.35-7.82s-2.37,3.49-2.38,7.81Z"/>
          <path class="cls-9" d="M916.18,910.78c-.01,6.58-1.61,11.94-3.59,12.11-.03,0-.06,0-.1,0-1.01,0-1.9-1.34-2.57-3.5-.67-2.2-1.08-5.26-1.08-8.63,0-3.38.43-6.43,1.11-8.63.62-2.01,1.45-3.3,2.37-3.47.07-.01.14-.02.21-.02,2.03,0,3.66,5.43,3.65,12.13Z"/>
          <path class="cls-8" d="M912.59,922.89v.02h-5.27s0-.02,0-.02c-2.02-.04-3.64-5.46-3.63-12.13.01-6.7,1.66-12.12,3.69-12.12.07,0,.14,0,.21.02h4.72c-.92.18-1.75,1.47-2.37,3.48-.68,2.2-1.1,5.25-1.11,8.63,0,3.38.41,6.43,1.08,8.63.67,2.16,1.56,3.5,2.57,3.5.03,0,.06,0,.1,0Z"/>
        </g>
        <g>
          <g>
            <rect class="cls-9" x="869.38" y="954.3" width="41.2" height="15.26" transform="translate(1.61 -1.48) rotate(.1)"/>
            <path class="cls-9" d="M867.11,961.9c0,4.22,1.05,7.64,2.35,7.64s2.37-3.42,2.38-7.64c0-4.22-1.05-7.64-2.35-7.64s-2.37,3.42-2.38,7.64Z"/>
          </g>
          <path class="cls-9" d="M908.29,961.98c0,4.32,1.05,7.82,2.35,7.82s2.37-3.49,2.38-7.81-1.05-7.82-2.35-7.82c-1.31,0-2.37,3.49-2.38,7.81Z"/>
          <path class="cls-9" d="M916.1,962c-.01,6.58-1.61,11.94-3.59,12.11-.03,0-.07,0-.1,0-1.01,0-1.9-1.34-2.57-3.5-.67-2.2-1.08-5.26-1.08-8.63,0-3.38.43-6.43,1.11-8.63.62-2.01,1.45-3.29,2.37-3.47.07-.01.14-.02.21-.02,2.03,0,3.66,5.43,3.65,12.13Z"/>
          <path class="cls-8" d="M912.5,974.11v.02h-5.27v-.02c-2.02-.04-3.64-5.46-3.63-12.13.01-6.7,1.66-12.12,3.69-12.12.07,0,.14,0,.21.02h4.72c-.92.18-1.75,1.47-2.37,3.48-.68,2.2-1.1,5.25-1.11,8.63,0,3.38.41,6.43,1.08,8.63.67,2.16,1.56,3.5,2.57,3.5.03,0,.06,0,.1,0Z"/>
        </g>
      </g>
      <g>
        <path class="cls-9" d="M616.26,1169.38c-64.17,0-126.43-12.57-185.04-37.36-56.61-23.94-107.45-58.22-151.1-101.88-43.66-43.66-77.93-94.5-101.88-151.1-24.79-58.61-37.36-120.86-37.36-185.04s12.57-126.43,37.36-185.04c23.94-56.61,58.22-107.45,101.88-151.1,43.66-43.66,94.5-77.93,151.1-101.88,58.61-24.79,120.86-37.36,185.04-37.36s126.43,12.57,185.04,37.36c56.61,23.94,107.44,58.22,151.1,101.88,43.66,43.66,77.93,94.5,101.88,151.1,24.79,58.61,37.36,120.86,37.36,185.04s-12.57,126.43-37.36,185.04c-23.94,56.61-58.22,107.45-101.88,151.1-43.66,43.66-94.5,77.93-151.1,101.88-58.61,24.79-120.86,37.36-185.04,37.36ZM616.26,221.63c-260.47,0-472.37,211.91-472.37,472.37s211.91,472.37,472.37,472.37,472.37-211.91,472.37-472.37-211.91-472.37-472.37-472.37Z"/>
        <circle class="cls-9" cx="625.38" cy="219.17" r="20.43" transform="translate(28.19 506.41) rotate(-45)"/>
        <circle class="cls-9" cx="625.38" cy="1166.92" r="20.43" transform="translate(-641.96 783.99) rotate(-45)"/>
        <circle class="cls-9" cx="143.34" cy="695.09" r="20.43" transform="translate(-566.09 674.89) rotate(-76.72)"/>
        <circle class="cls-9" cx="1091.08" cy="695.09" r="20.43" transform="translate(163.91 1597.29) rotate(-76.72)"/>
        <path class="cls-9" d="M616.26,932.9c-164.46,0-319.09-24.77-435.41-69.74-56.62-21.89-101.09-47.4-132.17-75.81C16.38,757.81,0,726.41,0,694s16.38-63.81,48.68-93.34c31.08-28.41,75.55-53.92,132.17-75.81,116.32-44.98,270.95-69.74,435.41-69.74s319.09,24.77,435.41,69.74c56.62,21.89,101.09,47.4,132.17,75.81,32.3,29.53,48.67,60.93,48.67,93.34s-16.38,63.81-48.67,93.34c-31.08,28.41-75.55,53.92-132.17,75.81-116.32,44.97-270.95,69.74-435.41,69.74ZM616.26,457.11C277.55,457.11,2,563.38,2,694s275.55,236.89,614.26,236.89,614.26-106.27,614.26-236.89-275.55-236.89-614.26-236.89Z"/>
        <path class="cls-9" d="M616.26,1148.91c-61.41,0-120.99-12.03-177.07-35.75-54.17-22.91-102.82-55.71-144.6-97.49-41.78-41.78-74.58-90.43-97.49-144.6-23.72-56.08-35.75-115.66-35.75-177.07s12.03-120.99,35.75-177.07c22.91-54.17,55.71-102.82,97.49-144.6,41.78-41.78,90.43-74.58,144.6-97.49,56.08-23.72,115.66-35.75,177.07-35.75s120.99,12.03,177.07,35.75c54.17,22.91,102.82,55.71,144.6,97.49,41.78,41.78,74.58,90.43,97.49,144.6,23.72,56.08,35.75,115.66,35.75,177.07s-12.03,120.99-35.75,177.07c-22.91,54.17-55.71,102.82-97.49,144.6-41.78,41.78-90.43,74.58-144.6,97.49-56.08,23.72-115.66,35.75-177.07,35.75ZM616.26,240.1c-250.28,0-453.9,203.62-453.9,453.9s203.62,453.9,453.9,453.9,453.9-203.62,453.9-453.9-203.62-453.9-453.9-453.9Z"/>
      </g>
    </g>
    <path class="cls-5" d="M824.55,748.03l-121.3-.2v-.08c-14.26-.94-27.52-10.62-37.45-27.35-10.08-16.99-15.6-39.4-15.56-63.12.04-23.72,5.64-46.12,15.78-63.07,9.98-16.7,23.28-26.33,37.54-27.22v-.05l1-.06,120.3.2v2s-119.65-.2-119.65-.2l-.62.06c-13.92.49-27.01,9.83-36.86,26.3-9.95,16.65-15.45,38.68-15.49,62.05-.04,23.36,5.39,45.42,15.29,62.1,9.79,16.5,22.85,25.89,36.77,26.42l.9.03,119.36.2v2Z"/>
    <path class="cls-5" d="M745.05,845.92l-49.52-.08v-.05c-12.19-.87-21.64-16.95-21.6-36.94.03-19.99,9.54-36.04,21.73-36.87v-.03l.5-.04,49.02.08v1s-48.68-.08-48.68-.08l-.32.04c-11.68.41-21.21,16.51-21.24,35.9-.03,19.38,9.44,35.52,21.12,35.97l.48.03,48.52.08v1Z"/>
    <g class="cls-36">
      <rect class="cls-28" x="177.17" y="451.5" width="19.41" height="145.6"/>
      <path class="cls-28" d="M212.69,479.08c-7.07-6.81-19.12-18.77-26.12-25.75-6.9,6.67-18.56,18.08-25.12,25.36l-11.76-10.62c10.1-11.19,30.66-30.74,31.53-31.56l5.6-5.32,5.46,5.46c.21.21,21.16,21.16,31.41,31.03l-10.99,11.41Z"/>
      <path class="cls-28" d="M186.93,611.7l-5.46-5.46c-.21-.21-21.16-21.16-31.41-31.03l10.99-11.41c7.07,6.81,19.12,18.77,26.12,25.75,6.9-6.67,18.56-18.08,25.12-25.36l11.76,10.62c-10.1,11.19-30.66,30.74-31.53,31.56l-5.6,5.32Z"/>
      <rect class="cls-28" x="174.31" y="448.64" width="19.41" height="145.6" transform="translate(705.46 337.42) rotate(90)"/>
      <path class="cls-28" d="M240.64,558.25l-11.41-10.99c6.81-7.07,18.77-19.12,25.75-26.12-6.67-6.9-18.08-18.56-25.36-25.12l10.62-11.76c11.19,10.1,30.74,30.66,31.56,31.53l5.32,5.6-5.46,5.46c-.21.21-21.16,21.16-31.03,31.41Z"/>
      <path class="cls-28" d="M133.5,558.63c-11.19-10.1-30.74-30.66-31.57-31.53l-5.32-5.6,5.46-5.46c.21-.21,21.16-21.16,31.03-31.41l11.41,10.99c-6.81,7.07-18.77,19.12-25.75,26.12,6.67,6.9,18.08,18.56,25.36,25.12l-10.61,11.76Z"/>
    </g>
  </g>
  <g id="male">
    <g class="cls-36">
      <path class="cls-18" d="M1469.06,630.49l-118.54,50.6-77.41-121.2-21.11,9.62s37.73,183.89,76.98,188.96,170.58-37.33,170.58-37.33l-30.5-90.64Z"/>
      <path class="cls-24" d="M1490.79,620.95l-99.19,41.86c17.45,6.46,34.25,51.99,21.25,83.43l86.61-21.89c38.12-18.9,35.21-107.89-8.66-103.4Z"/>
      <g>
        <polygon class="cls-18" points="1260.21 581.13 1227.53 576.79 1235.86 551.84 1252.78 540.97 1259.29 545.22 1267.1 568.32 1260.21 581.13"/>
        <g>
          <polygon class="cls-26" points="1210.01 593.49 1212.35 594.65 1238.61 593.13 1277.23 534.13 1258.49 521.06 1210.01 593.49"/>
          <path class="cls-26" d="M1253.33,530.31l-15.31-24.09c-3.07-3.6,8.28-22.87,12.14-17.19,0,0,34.54,48.99,35.54,51.6,2.35,4.92-11.88,14.3-14.56,10.7l-17.81-21.02Z"/>
          <path class="cls-26" d="M1237.01,591.91s-2.95,5.16-5.33,8.5c-.93,1.79-18.65-7.74-18.65-7.74l10.53-5.96,13.45,5.2Z"/>
        </g>
        <path class="cls-18" d="M1274.36,561.79s-7.63-22.54-15.91-26.61c-8.28-4.07-20.96-2.4-20.96-2.4,0,0-2.41,7.35,3.46,10.04,5.87,2.7,13.66,1.05,13.66,1.05,0,0-6,21.35,3.81,26.19,9.8,4.85,15.94-8.28,15.94-8.28Z"/>
        <path class="cls-18" d="M1227.64,541.42c-4.27,1.82.56,7.64.56,7.64,0,0-5.1,1.75-6.57,4.79-1.47,3.04,2.51,7.43,2.51,7.43,0,0-6.42,2.88-4.46,7.56,1.95,4.68,21.66,11.88,23.53,5.98,1.51-4.75-4.17-9.79-4.17-9.79,0,0,11.86,1.19,10.07-2.52s-5.91-7.75-5.91-7.75c0,0,11.12,1.21,9.31-4.37-1.98-6.14-20.6-10.78-24.87-8.96Z"/>
        <polygon class="cls-26" points="1244.58 509.45 1236.39 518 1242.44 525.84 1253.31 521.21 1244.58 509.45"/>
      </g>
      <g>
        <g>
          <path class="cls-26" d="M1759.19,1595.8l-87.7-.3c-1.8-1.04-3.13-2.21-3.92-3.54-4.29-65.24-10.69-96.67-10.69-96.67l61.09-2.28,13.66,48.57c20.41,14.06,44.71,44.14,27.56,54.21Z"/>
          <path class="cls-26" d="M1664.84,1596.65l103.98.36c2.64,0,1.8-14.45-.84-14.46l-103.36.23c-2.71,0-2.5,13.87.22,13.88Z"/>
        </g>
        <path class="cls-26" d="M1641.24,924.13c25.41,77.74,46.44,290.41,82.64,592.94l-62.26,3.07c-18.39-91.15-39.31-137.4-60.28-268.78-48.28-110.1-74.35-214.64-88.22-321.62l128.12-5.6Z"/>
      </g>
      <g>
        <path class="cls-26" d="M1556.95,927.81c-5.94,161.37-56.03,332.41-56.03,332.41-7.27,139.25-2.16,161.21-8.6,260.66l-56.26-.94c-4.38-67.85-63.34-372.35-6.8-586.55l127.68-5.58Z"/>
        <path class="cls-26" d="M1492.32,1520.88c4.93,26.89,8.46,47.87,6.27,72.19l-136.27,2.18s-13.44-13.18,3.58-32.83c17.03-19.65,49.19-8.14,70.16-42.49l56.26.94Z"/>
        <path class="cls-26" d="M1356.13,1595.59l144.77.5c2.64,0,1.99-14.45-.64-14.46l-144.15.09c-2.71,0-2.68,13.87.03,13.88Z"/>
      </g>
      <path class="cls-11" d="M1552.55,647.54c32.24,4.8,52.38-17.64,57.13-27.03l-2.03-65.29-36.96-3.73c-10.73.85-21.46,3.39-30.69,7l-8.47,42.95-1.87,9.31c-4.22,9.16-9.34,31.98,22.9,36.78Z"/>
      <path class="cls-27" d="M1595.15,569.95c-5.83,8.91-30.19,31.68-63.63,31.49l7.33-37.16,56.3,5.68Z"/>
      <g>
        <g>
          <path class="cls-20" d="M1507.18,529.82c.2,2.75.7,5.53,1.47,8.32.17.66.36,1.3.57,1.95,5.73,17.91,21.93,34.93,36.39,37.57,11.88,1.26,26.21-.31,38.97-4.42.21-.06.42-.14.62-.21,8.44-2.77,16.14-6.68,21.91-11.61,4.91-5.72,12.59-16.16,19.52-27.87,4.58-7.74,8.85-16.06,11.75-23.93,1.76-4.74,2.93-9.41,3.55-13.98,4.92-35.19-21.57-64.48-54.28-72-29.53-6.77-51.46.81-64.08,25.94-3.19,6.34-5.79,13.81-7.77,22.44-.81,3.5-1.83,8.08-2.89,13.2-3.09,14.89-6.48,34.25-5.75,44.59Z"/>
          <path class="cls-21" d="M1625.92,536.84c7.76-13.55-2.47-19.08-13.74-8.58,1.96-10.24,13.74-40.21,3.43-50.2-11.64-11.59-63.07-6.74-90.6-35.63,0,0,20.74-45.07,88.22-18.18,76.18,40.73,12.69,112.59,12.69,112.59Z"/>
        </g>
        <path class="cls-21" d="M1648.55,463.3c-2.84,11.32-83.12,1.13-83.12,1.13,0,0-2.03-.45-5.27-1.45-13.3-4.1-47.11-17.51-45.69-47.39,2.09-30.66,16.18-43.48,16.62-43.87-.02.08-.16.49-.34,1.18-.9,3.35-2.79,13.09,2.98,19.44,0,0,0-.16.03-.46v-.03c.28-3.36,3.44-23.23,37.08-23.57.58-.02,1.16-.02,1.76,0-10.97,3.54-6.12,32.45-6.12,32.45,0,0,.12-.27.4-.72,1.38-2.4,6.61-10.15,18.15-13.79.17-.06.35-.12.53-.17-7.41,33.32,81.37,28.96,62.98,77.25Z"/>
      </g>
      <path class="cls-29" d="M1642.11,864.51s6.46,76.55,13.15,111.8l-159.01,1.24-58.42.46-21.4.16c9.09-52.14,15.82-54.14,33.34-178.79,10-113.99,13.81-155.11,28.32-171.35,13.06-7.58,24.33-11.62,41.23-13.81.42-.05.85-.11,1.28-.16,2.57-.32,5.28-.59,8.14-.83-1.85,49.87,65.88,40.58,80.63,2.32,23.56,2.19,52.54,11.66,63.2,32.9,17,36.66-30.44,216.07-30.44,216.07Z"/>
      <path class="cls-7" d="M1529.08,621.54s-28.17,65.32-29.63,102.81c-1.09,28.15-2.55,179.51-3.2,253.19l-58.42.46,25.67-244.38,9.4-61.65,46.41-57.77.61-.76.67.59,8.48,7.5Z"/>
      <g>
        <g>
          <path class="cls-26" d="M1614.58,521.06c9.36-26.68-30.65-41.05-30.65-41.05l-19.45,54.66s40.74,13.08,50.1-13.6Z"/>
          <path class="cls-26" d="M1581.71,479.3c26.33,10.13,8.96,65.19-19.56,54.94l-66.29-20.33c-21.76-10.2-8.06-61.29,21.08-54.24l64.77,19.63Z"/>
          <path class="cls-34" d="M1568.34,531.6c10.91.57,19.15-11,21.65-22.74,2.01-9.44.7-21.85-9.57-25.89l-64.2-19.45h-.06c-14.61-2.41-22.63,11.65-23.98,16.17-5.15,17.23-1.05,27.71,5.49,30.71l65.67,20.14c1.78.64,3.42.98,5.01,1.06h0Z"/>
          <path class="cls-10" d="M1575.54,490.07c.4-.02.77-.28.89-.69.15-.51-.14-1.06-.65-1.21l-60.22-17.96c-.52-.16-1.06.14-1.21.65-.15.51.14,1.06.65,1.21l60.22,17.96c.11.03.22.05.32.04Z"/>
        </g>
        <polygon class="cls-26" points="1590.18 482.9 1606.28 527.63 1641.79 515.99 1643.65 507.29 1590.18 482.9"/>
      </g>
      <path class="cls-20" d="M1616.27,522.91c-5.87,7.09-6.15,16.51-.62,21.05,5.52,4.54,14.75,2.48,20.62-4.61,5.87-7.09,6.15-16.51.62-21.05-5.52-4.54-14.75-2.48-20.62,4.61Z"/>
      <path class="cls-25" d="M1525.53,540.62c.89,9.02,8.7,14.6,14.44,16.07,14.02,3.57,24.34-4.14,29.49-10-1.52.24-3,.42-4.46.52-23.02,1.74-39.19-12-39.19-12-.37,1.92-.45,3.73-.27,5.41Z"/>
      <path class="cls-29" d="M1525.47,539.2c1.68,1.65,4.66,4.47,8.26,6.29,14.57,7.38,28.16,4.7,28.82,4.51l2.45-2.81c-23.02,1.74-39.19-12-39.19-12-.37,1.92-.51,2.32-.33,4Z"/>
      <path class="cls-18" d="M1777.06,762.52l-65.09-72.83-61.13,65.23s61.83,53.95,86.78,61.54c35.87,21.55,63.17-22.81,39.44-53.94Z"/>
      <path class="cls-24" d="M1662.08,635.1c-7.69-2.46-14.65-3.8-20.92-4.2v117.93c19.8,17.97,39.3,34.54,39.3,34.54.91-27.06,29.78-65.76,61.78-64.63-18.74-25.96-44.58-53.92-80.17-83.64Z"/>
      <g>
        <path class="cls-18" d="M1721.2,604.12l-1.73,156.01c-.05,23.97,11.08,70.14,58.28,51.98,26.09-40.41-28.08-215.14-28.08-215.14l-28.46,7.15Z"/>
        <g>
          <path class="cls-18" d="M1751.44,604s2.94-39.46-5.17-42.96-39.37-11.05-39.37-11.05c0,0-3.75,11.85,4.41,16.5,8.15,4.65,16.54,3.28,16.54,3.28,0,0-2.68,17.17,2.08,25.42,4.76,8.25,16.25,12.23,21.52,8.8Z"/>
          <path class="cls-18" d="M1688.71,561.9c-9.59,5.66-4.71,16.91-4.71,16.91,0,0-7.88,10.89.32,19.51-5.27,8.44,3.46,17.13,3.46,17.13l43.52,8.36,21.3-19.17-10-38.81s-46.45-6.73-53.89-3.94Z"/>
          <g>
            <g>
              <polygon class="cls-26" points="1707.95 612.41 1710.55 612.14 1731.92 596.79 1732.93 526.28 1710.11 525.28 1707.95 612.41"/>
              <path class="cls-26" d="M1710.7,535.85l-25.83-12.14c-4.52-1.4-5.25-23.75,1.04-21.02,0,0,55.41,22.87,57.65,24.54,4.63,2.9-2.37,18.44-6.56,16.84l-26.3-8.21Z"/>
              <path class="cls-26" d="M1729.91,596.62s.27,5.94.05,10.03c.17,2.01-19.89,3.45-19.89,3.45l5.7-10.67,14.14-2.81Z"/>
            </g>
            <polygon class="cls-26" points="1692.14 522.92 1689.8 534.53 1699.11 537.91 1705.81 528.18 1692.14 522.92"/>
          </g>
          <path class="cls-18" d="M1708.04,561.58s31.49,1.25,35.01,6.23c3.52,4.98-8.41,10.73-8.41,10.73,0,0,11.9,5.61,9.11,10.71-2.79,5.1-11.27,6.69-11.27,6.69,0,0,12.52,7.6,7.89,11.83-4.62,4.24-29.52,7.2-29.52,7.2l-24.56-4.6,21.76-48.79Z"/>
        </g>
      </g>
      <path class="cls-24" d="M1523.42,611.36c-36.58,65.44-44.31,250.59-57.83,411.76l-67.41-6.27,48.6-236.19,4.82-63.87,5.28-82.09c22.6-10.64,44.99-19.87,66.54-23.34Z"/>
      <path class="cls-29" d="M1446.49,777.79s-.08,0-.12,0c-.55-.07-.94-.57-.87-1.12,6.3-50.92,6.88-87.36,6.89-87.72,0-.55.45-.99,1-.99h.01c.55,0,.99.46.99,1.01,0,.36-.58,36.9-6.9,87.94-.06.51-.49.88-.99.88Z"/>
      <path class="cls-24" d="M1664.41,846.66l30.05,167.05s-24.04,5.23-88.83,5.23c-38.67-157.81,6.27-405.49,6.27-405.49,38.66,2.61,84.65,53.29,84.65,53.29l-26.45,105.05-11.17,44.39,5.48,30.47Z"/>
      <path class="cls-4" d="M1658.92,816.19l5.48,30.47s-16.28-28.9-16.45-55.38c-.18-26.48-8.45-49.22-8.45-49.22l29.7,31.63-10.28,42.5Z"/>
      <path class="cls-24" d="M1533.78,588.36l-31.09,10.97,5.75,50.43c7.68-16.07,14.5-24.92,20.64-28.22l4.7-33.18Z"/>
      <path class="cls-24" d="M1608.77,586.97c-1.08,8.95-5.92,14.28-8.71,18.46-2.79,18.81,6.12,34.96,6.97,52.6l10.1-44.59c1.03-9.42-1.19-18.34-8.36-26.48Z"/>
    </g>
  </g>
</svg>